<svg width="24" height="24" viewBox="0 0 24 24" fill="none" xmlns="http://www.w3.org/2000/svg">
<path d="M5.5 21C6.16304 21 6.79893 20.7366 7.26777 20.2678C7.73661 19.7989 8 19.163 8 18.5C8 17.837 7.73661 17.2011 7.26777 16.7322C6.79893 16.2634 6.16304 16 5.5 16C4.83696 16 4.20107 16.2634 3.73223 16.7322C3.26339 17.2011 3 17.837 3 18.5C3 19.163 3.26339 19.7989 3.73223 20.2678C4.20107 20.7366 4.83696 21 5.5 21ZM18.5 21C19.163 21 19.7989 20.7366 20.2678 20.2678C20.7366 19.7989 21 19.163 21 18.5C21 17.837 20.7366 17.2011 20.2678 16.7322C19.7989 16.2634 19.163 16 18.5 16C17.837 16 17.2011 16.2634 16.7322 16.7322C16.2634 17.2011 16 17.837 16 18.5C16 19.163 16.2634 19.7989 16.7322 20.2678C17.2011 20.7366 17.837 21 18.5 21Z" stroke="white" stroke-width="2" stroke-linejoin="round"/>
<path d="M7.68848 19.7065L8.74998 17.908L17.25 3.18555" stroke="white" stroke-width="2" stroke-linecap="round"/>
<path d="M6.74805 3.08789L15.248 17.8104L16.313 19.7069" stroke="white" stroke-width="2" stroke-linecap="round"/>
</svg>
