<svg width="24" height="24" viewBox="0 0 24 24" fill="none" xmlns="http://www.w3.org/2000/svg">
<path d="M6.05005 8.05C4.73886 9.36368 4.00244 11.1439 4.00244 13C4.00244 14.8561 4.73886 16.6363 6.05005 17.95C7.42005 19.32 9.21005 20 11.0001 20C12.7901 20 14.5801 19.32 15.9501 17.95C19.4301 14.47 20.0001 4 20.0001 4C20.0001 4 9.53005 4.57 6.05005 8.05ZM14.5401 16.54C13.5901 17.48 12.3401 18 11.0001 18C10.1101 18 9.27005 17.75 8.52005 17.32C9.44005 14.44 11.1401 11.91 13.4001 10C10.7701 11.36 8.56005 13.46 7.03005 16C5.55005 14.04 5.68005 11.25 7.47005 9.46C9.21005 7.72 14.0401 6.65 17.8001 6.2C17.3501 9.96 16.2801 14.79 14.5401 16.54Z" fill="white"/>
</svg>
