<svg width="70" height="70" viewBox="0 0 70 70" fill="none" xmlns="http://www.w3.org/2000/svg">
<g clip-path="url(#clip0_77_508)">
<path d="M68.6328 61.49H64.4178V57.6939H66.8555C67.6106 57.6939 68.2227 57.0818 68.2227 56.3267V49.5256C68.2227 48.7705 67.6106 48.1584 66.8555 48.1584H62.7147V44.8598H65.4883C66.2434 44.8598 66.8555 44.2477 66.8555 43.4926V36.6916C66.8555 35.9365 66.2434 35.3244 65.4883 35.3244H62.7147V34.0212C62.7147 33.2661 62.1026 32.654 61.3475 32.654C60.5924 32.654 59.9803 33.2661 59.9803 34.0212V35.3244H41.1626V34.0212C41.1626 33.2661 40.5505 32.654 39.7954 32.654C39.0403 32.654 38.4282 33.2661 38.4282 34.0212V35.3244H36.8516C36.852 35.2856 36.8531 35.2469 36.8531 35.208C36.8531 32.3561 35.8545 29.6635 34.0212 27.5229C34.5972 26.249 34.8984 24.8587 34.8984 23.4482C34.8984 17.9979 30.4642 13.5637 25.0139 13.5637C22.9455 13.5637 20.9855 14.1923 19.3488 15.3413C19.2899 10.0567 14.9734 5.77563 9.67518 5.77563C4.34027 5.77577 0 10.1159 0 15.4508V36.3949C0 41.2656 3.61826 45.3066 8.30785 45.9729V61.49H1.36719C0.61209 61.49 0 62.1021 0 62.8572C0 63.6123 0.61209 64.2244 1.36719 64.2244H68.6328C69.3879 64.2244 70 63.6123 70 62.8572C70 62.1021 69.3879 61.49 68.6328 61.49ZM61.6834 61.49H39.4594V57.6939H61.6834V61.49ZM65.4883 54.9595H35.6545V50.8928H65.4883V54.9595ZM59.9803 48.1586H41.1626V44.86H59.9803V48.1586ZM37.0217 38.0588H64.1211V42.1255H37.0217V38.0588ZM35.6545 44.8598H38.4282V48.1584H34.2873C33.5322 48.1584 32.9201 48.7705 32.9201 49.5256V56.3267C32.9201 57.0818 33.5322 57.6939 34.2873 57.6939H36.725V61.49H26.3808V46.9679C29.5739 46.599 32.384 44.9551 34.2873 42.5593V43.4925C34.2873 44.2477 34.8994 44.8598 35.6545 44.8598ZM25.0138 16.2982C28.9563 16.2982 32.1639 19.5058 32.1639 23.4483C32.1639 24.7206 31.8259 25.9691 31.1866 27.0593C30.87 27.5992 30.9604 28.2851 31.4061 28.7246C33.1553 30.4494 34.1187 32.752 34.1187 35.2082C34.1187 39.764 30.7552 43.549 26.381 44.2104V38.8463L29.5643 35.6629C30.0982 35.129 30.0982 34.2633 29.5643 33.7293C29.0304 33.1955 28.1647 33.1955 27.6307 33.7293L26.3808 34.9792V31.7175C26.3808 30.9624 25.7687 30.3503 25.0137 30.3503C24.2586 30.3503 23.6465 30.9624 23.6465 31.7175V44.2116C21.4927 43.8905 19.54 42.8142 18.1044 41.1388C18.8969 39.7362 19.3499 38.1175 19.3499 36.3949V19.0842C20.7164 17.3132 22.7779 16.2982 25.0138 16.2982ZM2.73438 36.3949V15.4508C2.73438 11.6236 5.84787 8.51015 9.67504 8.51015C13.5021 8.51015 16.6157 11.6236 16.6157 15.4508V36.3949C16.6157 39.7541 14.2167 42.5628 11.0422 43.1997V25.9228C11.0422 25.1677 10.4301 24.5556 9.67504 24.5556C8.91994 24.5556 8.30785 25.1677 8.30785 25.9228V43.1997C5.13338 42.5628 2.73438 39.7541 2.73438 36.3949ZM11.0422 45.9729C13.112 45.6788 14.9728 44.7276 16.4061 43.3375C18.3256 45.378 20.869 46.6539 23.6466 46.9698V61.49H11.0422V45.9729Z" fill="#F4FFFA"/>
</g>
<defs>
<clipPath id="clip0_77_508">
<rect width="70" height="70" fill="white"/>
</clipPath>
</defs>
</svg>
