<svg width="60" height="60" viewBox="0 0 60 60" fill="none" xmlns="http://www.w3.org/2000/svg">
<g clip-path="url(#clip0_76_503)">
<path d="M57.1774 22.039C55.12 19.9828 51.7743 19.9828 49.7169 22.039L41.4933 30.2626C37.8065 29.2075 33.6671 30.1301 30.7692 33.028L25.3123 38.485V27.5065H27.2665C33.0939 27.5065 37.8346 22.7658 37.8346 16.9384V11.4673C33.0783 11.5651 29.1515 10.7149 25.3123 14.1694C25.3123 13.8618 25.3123 10.2347 25.3123 10.0606H25.2994C25.0344 4.46759 20.4015 0 14.7441 0H9.27302V5.47106C9.27302 11.2985 14.0137 16.0392 19.8412 16.0392H21.7954V39.7288C17.4146 40.3595 13.6808 43.316 12.076 47.4565C6.30479 47.0543 1.2554 51.5919 1.28037 57.4211C1.28037 57.421 1.28037 60 1.28037 60H45.8273C45.8923 56.4831 45.8898 53.9558 43.553 51.0824L46.1883 48.4471C49.0862 45.548 50.0088 41.4099 48.9538 37.723L57.1774 29.4994C59.2347 27.4421 59.2347 24.0964 57.1774 22.039ZM32.3636 14.9842H34.3178V16.9384C34.3178 20.8257 31.1538 23.9897 27.2665 23.9897H25.3123V22.0355C25.3123 18.147 28.4751 14.9842 32.3636 14.9842ZM19.8412 12.5224C15.9539 12.5224 12.7899 9.35954 12.7899 5.47106V3.51686H14.7441C18.6326 3.51686 21.7954 6.68086 21.7954 10.5682V12.5224H19.8412ZM43.1298 33.6001L44.2189 32.5099L46.7065 34.9975L45.6163 36.0865C44.9185 36.1783 43.4604 36.3687 42.7559 36.4605L43.1298 33.6001ZM54.6909 27.013L49.1941 32.5099L46.7065 30.0223L52.2033 24.5254C52.8891 23.8408 54.0051 23.8408 54.6909 24.5254C55.3767 25.2112 55.3767 26.3272 54.6909 27.013ZM4.86522 56.4831C5.32124 53.3707 8.00812 50.9734 11.2448 50.9734H14.7066L15.0512 49.6639C16.0676 45.8106 19.5645 43.1191 23.5538 43.1191C27.5431 43.1191 31.04 45.8106 32.0564 49.6639L32.4011 50.9734H35.8628C38.9794 50.9127 41.8495 53.4053 42.2436 56.4831H4.86522ZM43.7007 45.9595L40.8626 48.7976C39.3598 47.9219 37.6471 47.4565 35.8628 47.4565H35.0317C33.7996 44.2773 31.3132 41.7967 28.2418 40.5307L33.2568 35.5156C34.9824 33.7888 37.3575 33.0972 39.6036 33.4407L38.6775 40.5389L45.7757 39.6128C46.1192 41.8589 45.4275 44.2339 43.7007 45.9595Z" fill="#F4FFFA"/>
</g>
<defs>
<clipPath id="clip0_76_503">
<rect width="60" height="60" fill="white"/>
</clipPath>
</defs>
</svg>
