<svg width="14" height="14" viewBox="0 0 14 14" fill="none" xmlns="http://www.w3.org/2000/svg">
<path d="M14.1318 7.76786C14.2256 7.67409 14.2782 7.54691 14.2782 7.41431C14.2782 7.2817 14.2256 7.15452 14.1318 7.06075L8.8285 1.75745C8.45342 1.38238 7.94472 1.17167 7.41428 1.17167C6.88385 1.17167 6.37514 1.38238 6.00007 1.75745L5.29296 2.46456L3.87875 1.05035C3.50368 0.675273 2.99497 0.464559 2.46454 0.464559C1.9341 0.464559 1.4254 0.675273 1.05032 1.05035C0.67525 1.42542 0.464537 1.93413 0.464537 2.46456C0.464537 2.99499 0.67525 3.5037 1.05032 3.87877L2.46454 5.29299L1.75743 6.00009C1.38236 6.37517 1.17164 6.88387 1.17164 7.41431C1.17164 7.94474 1.38236 8.45345 1.75743 8.82852L7.06073 14.1318C7.1545 14.2256 7.28168 14.2783 7.41428 14.2783C7.54689 14.2783 7.67407 14.2256 7.76784 14.1318L14.1318 7.76786ZM9.5356 3.87877L13.0711 7.41431L10.2427 10.2427L9.18205 9.18207C9.08828 9.08831 8.96111 9.03563 8.8285 9.03563C8.69589 9.03563 8.56871 9.08831 8.47494 9.18207C8.38118 9.27584 8.3285 9.40302 8.3285 9.53563C8.3285 9.66824 8.38118 9.79541 8.47494 9.88918L9.5356 10.9498L8.8285 11.6569L7.06073 9.88918C6.96696 9.79541 6.83979 9.74273 6.70718 9.74273C6.57457 9.74273 6.44739 9.79541 6.35362 9.88918C6.25986 9.98295 6.20718 10.1101 6.20718 10.2427C6.20718 10.3753 6.25986 10.5025 6.35362 10.5963L8.12139 12.3641L7.41428 13.0712L3.87875 9.53563L9.5356 3.87877ZM8.8285 3.17167L3.17164 8.82852L2.46454 8.12141C2.277 7.93388 2.17164 7.67952 2.17164 7.41431C2.17164 7.14909 2.277 6.89474 2.46454 6.7072L3.5252 5.64654C3.61896 5.55277 3.67164 5.42559 3.67164 5.29299C3.67164 5.16038 3.61896 5.0332 3.5252 4.93943L1.75743 3.17167C1.56989 2.98413 1.46454 2.72978 1.46454 2.46456C1.46454 2.19934 1.56989 1.94499 1.75743 1.75745C1.94497 1.56992 2.19932 1.46456 2.46454 1.46456C2.72975 1.46456 2.98411 1.56992 3.17164 1.75745L4.93941 3.52522C5.03318 3.61899 5.16036 3.67167 5.29296 3.67167C5.42557 3.67167 5.55275 3.61899 5.64652 3.52522L6.70718 2.46456C6.89471 2.27702 7.14907 2.17167 7.41428 2.17167C7.6795 2.17167 7.93385 2.27702 8.12139 2.46456L8.8285 3.17167Z" fill="white"/>
</svg>
