<svg width="60" height="60" viewBox="0 0 60 60" fill="none" xmlns="http://www.w3.org/2000/svg">
<g clip-path="url(#clip0_30_182)">
<path d="M59.8934 47.7708L58.4217 47.5186C58.375 47.5108 53.6179 46.6891 45.0609 44.6644C38.5222 43.1181 30.5191 44.3889 23.4586 45.5104C20.7024 45.9485 18.0986 46.3618 15.8826 46.5523C8.2956 47.2046 2.25769 46.5628 2.19727 46.5564L0.234375 46.3408V60.0005H59.8934V47.7708ZM56.3526 56.4596H3.77518V50.235C6.24345 50.3906 10.806 50.543 16.1861 50.0802C18.5289 49.8788 21.1931 49.4559 24.0139 49.0077C30.7512 47.937 38.3877 46.7244 44.2457 48.1105C50.2291 49.5259 54.3224 50.3508 56.3526 50.738V56.4596Z" fill="#F4FFFA"/>
<path d="M27.3242 19.889L29.8731 23.5713C31.9051 26.506 34.4232 29.0246 37.3584 31.0562L39.801 32.7472C40.6827 33.3578 41.698 33.6568 42.7083 33.6568C44.0258 33.6568 45.334 33.1482 46.3228 32.159L55.1957 23.2866C56.9429 21.5393 57.1901 18.7964 55.7834 16.7648L54.0924 14.3222C52.0609 11.387 49.5423 8.86882 46.6075 6.83681L42.4195 3.93733L41.731 2.1905C41.3025 1.10285 40.3636 0.311379 39.2192 0.0733411C38.0753 -0.164696 36.8974 0.186409 36.0707 1.01313L24.7314 12.3529L24.9951 19.7522L27.3242 19.889ZM51.1815 16.3377L52.8725 18.7799C53.3042 19.4043 53.2282 20.2461 52.6917 20.7831L43.8193 29.6554C43.2828 30.1919 42.4401 30.2684 41.8161 29.8363L39.374 28.1453C36.7899 26.3563 34.5729 24.1394 32.7844 21.5558L30.3478 18.0365L41.0727 7.31197L44.592 9.74819C47.1756 11.5367 49.3926 13.7541 51.1815 16.3377ZM38.4836 3.60774L38.8471 4.53013L28.3688 15.0079L28.3249 13.7669L38.4836 3.60774Z" fill="#F4FFFA"/>
<path d="M15.208 20.3704L17.7655 18.207L20.0525 20.9097L17.495 23.0735L15.208 20.3704Z" fill="#F4FFFA"/>
<path d="M11.2671 26.3391L13.8242 24.1748L16.1116 26.8779L13.5545 29.0422L11.2671 26.3391Z" fill="#F4FFFA"/>
<path d="M10.7617 35.0843L13.3192 32.9209L15.6062 35.6235L13.0487 37.7874L10.7617 35.0843Z" fill="#F4FFFA"/>
<path d="M15.8965 31.2498L18.454 29.0859L20.741 31.789L18.1835 33.9524L15.8965 31.2498Z" fill="#F4FFFA"/>
<path d="M17.3105 39.0762L19.8676 36.9124L22.1551 39.6155L19.5975 41.7793L17.3105 39.0762Z" fill="#F4FFFA"/>
<path d="M11.9292 42.4219L14.4863 40.2576L16.7737 42.9607L14.2162 45.125L11.9292 42.4219Z" fill="#F4FFFA"/>
<path d="M36.0337 20.4747L43.5108 12.998L46.0143 15.5016L38.5377 22.9787L36.0337 20.4747Z" fill="#F4FFFA"/>
</g>
<defs>
<clipPath id="clip0_30_182">
<rect width="60" height="60" fill="white"/>
</clipPath>
</defs>
</svg>
