<svg width="24" height="24" viewBox="0 0 24 24" fill="none" xmlns="http://www.w3.org/2000/svg">
<path d="M2 11C4.332 8.558 7.643 8.443 10 11M14 22C16.332 19.558 19.643 19.443 22 22M3 14C3 17.87 6.13 21 10 21L9 19M15 3H21M15 6H21M15 9H18.5M8.495 4.5C8.495 5.88 7.375 7 5.992 7C5.66336 7.00053 5.33784 6.93625 5.03406 6.81085C4.73029 6.68545 4.45422 6.50138 4.22165 6.26918C3.98908 6.03699 3.80457 5.76121 3.67868 5.45764C3.5528 5.15406 3.488 4.82864 3.488 4.5C3.488 3.12 4.608 2 5.992 2C6.32056 1.99961 6.64597 2.06398 6.94963 2.18944C7.25329 2.3149 7.52924 2.49899 7.76171 2.73117C7.99417 2.96336 8.17859 3.23909 8.30441 3.5426C8.43024 3.84611 8.495 4.17144 8.495 4.5ZM20.495 15.5C20.495 16.88 19.375 18 17.991 18C17.6624 18.0004 17.337 17.936 17.0334 17.8106C16.7297 17.6851 16.4538 17.501 16.2213 17.2688C15.9888 17.0366 15.8044 16.7609 15.6786 16.4574C15.5528 16.1539 15.488 15.8286 15.488 15.5C15.488 14.12 16.608 13 17.991 13C18.3196 12.9995 18.6452 13.0638 18.9489 13.1892C19.2527 13.3146 19.5288 13.4986 19.7614 13.7308C19.9939 13.963 20.1784 14.2388 20.3043 14.5424C20.4302 14.8459 20.495 15.1714 20.495 15.5Z" stroke="white" stroke-width="1.5" stroke-linecap="round" stroke-linejoin="round"/>
</svg>
